<svg xmlns="http://www.w3.org/2000/svg" viewBox="0 0 64 64"><path fill="none" d="M0 0h1200v1200H0z"/><path fill="#191b20" d="M0 0h1200v1200H0z"/><defs><linearGradient id="a" x1="5.63" x2="61.37" y1="60.87" y2="5.13" gradientUnits="userSpaceOnUse"><stop offset="0" stop-color="#2945ae"/><stop offset="1" stop-color="#5ce0aa"/></linearGradient></defs><path fill="url(#a)" d="M39 27a3 3 0 0 0-3-3h-5a1 1 0 0 0-1 1v4a1 1 0 0 0 1 1h5a3 3 0 0 0 3-3zm-3 1h-4v-2h4a1 1 0 0 1 0 2zm-5 8a1 1 0 0 0-1 1v4a1 1 0 0 0 1 1h5a3 3 0 0 0 0-6zm6 3a1 1 0 0 1-1 1h-4v-2h4a1 1 0 0 1 1 1zm21-17v-3h3a1 1 0 0 0 0-2h-4a1 1 0 0 0-1 1v3h-3.229a24.183 24.183 0 0 0-6.271-7.109L47.58 12H56a1 1 0 0 0 .949-.684l.781-2.343c.09.008.178.027.27.027a3.009 3.009 0 1 0-2.1-.863L55.279 10H47a1 1 0 0 0-.868.5l-1.281 2.242a23.932 23.932 0 0 0-27.146.989L15 12.382V8.816a3 3 0 1 0-2 0V13a1 1 0 0 0 .553.895l2.456 1.228A24.162 24.162 0 0 0 11.229 21H8v-3a1 1 0 0 0-1-1H3a1 1 0 0 0 0 2h3v3a1 1 0 0 0 1 1h3.191a23.818 23.818 0 0 0-2.166 9H7v-6a1 1 0 0 0-1-1H3a1 1 0 0 0 0 2h2v6a1 1 0 0 0 1 1h2.025a23.932 23.932 0 0 0 .5 4H6a1 1 0 0 0-1 1v3H3a1 1 0 0 0 0 2h3a1 1 0 0 0 1-1v-3h2.044a24.077 24.077 0 0 0 7.869 11.647L16.338 53H11a1 1 0 0 0-.707.293L8.285 55.3A2.951 2.951 0 0 0 7 55a3 3 0 1 0 3 3 2.951 2.951 0 0 0-.3-1.285L11.414 55H17a1 1 0 0 0 .92-.609l.644-1.515A23.938 23.938 0 0 0 46.638 52h7.581l.566 2.262a3.012 3.012 0 1 0 2.027-.136l-.842-3.368A1 1 0 0 0 55 50h-6.077a24.037 24.037 0 0 0 6.033-10H57v3a1 1 0 0 0 1 1h3a1 1 0 0 0 0-2h-2v-3a1 1 0 0 0-1-1h-2.528a23.932 23.932 0 0 0 .5-4H58a1 1 0 0 0 1-1v-6h2a1 1 0 0 0 0-2h-3a1 1 0 0 0-1 1v6h-1.025a23.818 23.818 0 0 0-2.166-9H57a1 1 0 0 0 1-1zm0-17a1 1 0 1 1-1 1 1 1 0 0 1 1-1zM14 7a1 1 0 1 1 1-1 1 1 0 0 1-1 1zM7 59a1 1 0 0 1 0-2 1 1 0 0 0 1 1 1 1 0 0 1-1 1zm49-3a1 1 0 1 1-1 1 1 1 0 0 1 1-1zm-2.025-24h-3.159a3 3 0 1 0 0 2h3.159a21.95 21.95 0 0 1-.555 4H47a1 1 0 0 0 0 2h5.852a22.058 22.058 0 0 1-6.219 9.409l-.663-2.651a1 1 0 1 0-1.94.484l.887 3.55a21.928 21.928 0 0 1-25.553.2l1.012-2.383a1 1 0 0 0-1.841-.781l-.8 1.895A22.067 22.067 0 0 1 11.148 40H17a1 1 0 0 0 0-2h-6.42a21.95 21.95 0 0 1-.555-4h3.159a3 3 0 1 0 0-2h-3.159a21.849 21.849 0 0 1 2.389-9h2.172l2.707 2.707a1 1 0 0 0 1.414-1.414l-3-3A1 1 0 0 0 15 21h-1.425a22.209 22.209 0 0 1 4.369-4.91l3.609 1.8a1 1 0 0 0 .894-1.79l-2.716-1.358a21.941 21.941 0 0 1 24.127-.263L42.132 17.5a1 1 0 0 0 .372 1.364A.988.988 0 0 0 43 19a1 1 0 0 0 .869-.5l1.629-2.85A22.15 22.15 0 0 1 50.425 21H49a1 1 0 0 0-.707.293l-3 3a1 1 0 1 0 1.414 1.414L49.414 23h2.172a21.849 21.849 0 0 1 2.389 9zM49 33a1 1 0 1 1-1-1 1 1 0 0 1 1 1zm-34 0a1 1 0 1 1 1 1 1 1 0 0 1-1-1zm29-6a7.01 7.01 0 0 0-5-6.7V16a1 1 0 0 0-1-1h-4a1 1 0 0 0-1 1v4h-2v-4a1 1 0 0 0-1-1h-4a1 1 0 0 0-1 1v4h-3a1 1 0 0 0-1 1v4a1 1 0 0 0 1 1h3v14h-3a1 1 0 0 0-1 1v4a1 1 0 0 0 1 1h3v4a1 1 0 0 0 1 1h4a1 1 0 0 0 1-1v-4h2v4a1 1 0 0 0 1 1h4a1 1 0 0 0 1-1v-4.3A7 7 0 0 0 40.6 33a7 7 0 0 0 3.4-6zm-9-10h2v3h-2zm-8 0h2v3h-2zm2 32h-2v-3h2zm8 0h-2v-3h2zm0-15a5 5 0 0 1 0 10H23v-2h3a1 1 0 0 0 1-1V25a1 1 0 0 0-1-1h-3v-2h14a5 5 0 0 1 0 10 1 1 0 0 0 0 2z" transform="matrix(.7 0 0 .7 9.1 9.1)"/></svg>