<svg xmlns="http://www.w3.org/2000/svg" viewBox="0 0 48 48"><defs><linearGradient id="a" x1=".667" x2=".417" y1=".167" y2=".75"><stop offset="0" stop-color="#37aee2"/><stop offset="1" stop-color="#1e96c8"/></linearGradient><linearGradient id="b" x1="0%" y1="0%" y2="100%" gradientUnits="userSpaceOnUse"><stop offset="0" stop-color="#2945ae"/><stop offset="1" stop-color="#5ce0aa"/></linearGradient></defs><circle cx="24" cy="24" r="24" fill="url(#a)" fill-opacity=".1"/><path fill="url(#b)" d="M98 175c3 0 4.325-1.372 6-3l16-15.558-19.958-12.035"/><path fill="url(#b)" d="M100.04 144.41l48.36 35.729c5.519 3.045 9.501 1.468 10.876-5.123l19.685-92.763c2.015-8.08-3.08-11.746-8.36-9.349l-115.59 44.571c-7.89 3.165-7.843 7.567-1.438 9.528l29.663 9.259 68.673-43.325c3.242-1.966 6.218-.91 3.776 1.258M23.5 15.5c-.3 0-.5-.2-.5-.5v-3c0-.3.2-.5.5-.5s.5.2.5.5v3c0 .3-.2.5-.5.5z"/><path fill="url(#b)" d="M23.5 12.5c-.8 0-1.5-.7-1.5-1.5s.7-1.5 1.5-1.5 1.5.7 1.5 1.5-.7 1.5-1.5 1.5zm0-2c-.3 0-.5.2-.5.5s.2.5.5.5.5-.2.5-.5-.2-.5-.5-.5zm-3 10c-1.1 0-2-.9-2-2s.9-2 2-2 2 .9 2 2-.9 2-2 2zm0-3c-.6 0-1 .4-1 1s.4 1 1 1 1-.4 1-1-.4-1-1-1zm6 3c-1.1 0-2-.9-2-2s.9-2 2-2 2 .9 2 2-.9 2-2 2zm0-3c-.6 0-1 .4-1 1s.4 1 1 1 1-.4 1-1-.4-1-1-1z"/><path fill="url(#b)" d="M27 22.5h-7c-1.9 0-3.5-1.6-3.5-3.5v-1c0-1.9 1.6-3.5 3.5-3.5h7c1.9 0 3.5 1.6 3.5 3.5v1c0 1.9-1.6 3.5-3.5 3.5zm-7-7c-1.4 0-2.5 1.1-2.5 2.5v1c0 1.4 1.1 2.5 2.5 2.5h7c1.4 0 2.5-1.1 2.5-2.5v-1c0-1.4-1.1-2.5-2.5-2.5h-7z"/><path fill="url(#b)" d="M25 25.5h-3c-.3 0-.5-.2-.5-.5v-3c0-.3.2-.5.5-.5h3c.3 0 .5.2.5.5v3c0 .3-.2.5-.5.5zm-2.5-1h2v-2h-2v2z"/><path fill="url(#b)" d="M30 36.5H17c-.8 0-1.5-.7-1.5-1.5v-9c0-.8.7-1.5 1.5-1.5h13c.8 0 1.5.7 1.5 1.5v9c0 .8-.7 1.5-1.5 1.5zm-13-11c-.3 0-.5.2-.5.5v9c0 .3.2.5.5.5h13c.3 0 .5-.2.5-.5v-9c0-.3-.2-.5-.5-.5H17zm-2 13c-.3 0-.5-.2-.5-.5 0-.8-.7-1.5-1.5-1.5s-1.5.7-1.5 1.5c0 .3-.2.5-.5.5s-.5-.2-.5-.5c0-1.4 1.1-2.5 2.5-2.5s2.5 1.1 2.5 2.5c0 .3-.2.5-.5.5z"/><path fill="url(#b)" d="M16 31.5h-2.5c-1.7 0-3-1.3-3-3s1.3-3 3-3H16c.3 0 .5.2.5.5v5c0 .3-.2.5-.5.5zm-2.5-5c-1.1 0-2 .9-2 2s.9 2 2 2h2v-4h-2z"/><path fill="url(#b)" d="M14 36.5c-.3 0-.5-.2-.5-.5v-4.5c-.3 0-.7-.1-1-.2V36c0 .3-.2.5-.5.5s-.5-.2-.5-.5v-5.5c0-.2.1-.4.3-.4s.4-.1.5 0c.4.3.8.4 1.2.4h.5c.3 0 .5.2.5.5v5c0 .3-.2.5-.5.5zm22 2c-.3 0-.5-.2-.5-.5 0-.8-.7-1.5-1.5-1.5s-1.5.7-1.5 1.5c0 .3-.2.5-.5.5s-.5-.2-.5-.5c0-1.4 1.1-2.5 2.5-2.5s2.5 1.1 2.5 2.5c0 .3-.2.5-.5.5zm-2.5-7H31c-.3 0-.5-.2-.5-.5v-5c0-.3.2-.5.5-.5h2.5c1.7 0 3 1.3 3 3s-1.3 3-3 3zm-2-1h2c1.1 0 2-.9 2-2s-.9-2-2-2h-2v4z"/><path fill="url(#b)" d="M35 36.5c-.3 0-.5-.2-.5-.5v-4.7c-.3.1-.7.2-1 .2V36c0 .3-.2.5-.5.5s-.5-.2-.5-.5v-5c0-.3.2-.5.5-.5h.5c.4 0 .8-.1 1.2-.4.2-.1.4-.1.5 0 .2.1.3.3.3.4V36c0 .3-.2.5-.5.5zm-7.5-4c-.3 0-.5-.2-.5-.5v-4c0-.3.2-.5.5-.5s.5.2.5.5v4c0 .3-.2.5-.5.5z"/><path fill="url(#b)" d="M28.5 28.5h-2c-.3 0-.5-.2-.5-.5s.2-.5.5-.5h2c.3 0 .5.2.5.5s-.2.5-.5.5zm-9 2h-1c-.3 0-.5-.2-.5-.5v-2c0-.3.2-.5.5-.5h1c.8 0 1.5.7 1.5 1.5s-.7 1.5-1.5 1.5zm-.5-1h.5c.3 0 .5-.2.5-.5s-.2-.5-.5-.5H19v1z"/><path fill="url(#b)" d="M19.5 32.5h-1c-.3 0-.5-.2-.5-.5v-2c0-.3.2-.5.5-.5h1c.8 0 1.5.7 1.5 1.5s-.7 1.5-1.5 1.5zm-.5-1h.5c.3 0 .5-.2.5-.5s-.2-.5-.5-.5H19v1zm4.5 1c-.8 0-1.5-.7-1.5-1.5v-2c0-.8.7-1.5 1.5-1.5s1.5.7 1.5 1.5v2c0 .8-.7 1.5-1.5 1.5zm0-4c-.3 0-.5.2-.5.5v2c0 .3.2.5.5.5s.5-.2.5-.5v-2c0-.3-.2-.5-.5-.5z"/><path fill="url(#b)" d="M24 48C10.8 48 0 37.2 0 24S10.8 0 24 0s24 10.8 24 24-10.8 24-24 24zm0-47C11.3 1 1 11.3 1 24s10.3 23 23 23 23-10.3 23-23S36.7 1 24 1z"/></svg>