<svg viewBox="0 0 1000 1000" xmlns="http://www.w3.org/2000/svg" fill-rule="evenodd" clip-rule="evenodd" stroke-linejoin="round" stroke-miterlimit="1.414"><path fill="none" d="M0 0h1000v1000H0z"/><path fill="#191b20" d="M0 0h1000v1000H0z"/><circle cx="558.504" cy="601.375" r="176.255" fill="#6d82d5" fill-opacity=".149"/><circle cx="370.874" cy="332.68" r="101.375" fill="#5ce0aa"/><path d="M676.374 785.412h-78.048c-3.228-.141-3.384-.261-5.657-2.344l-69.585-69.585c-2.183-2.383-2.209-2.578-2.343-5.657v-47.881c.292-6.326 8.422-10.441 13.389-5.913 1.595 1.454 2.458 2.603 2.611 5.913v44.567l64.899 64.9h71.421l25.309-25.31c-12.886-15.13-3.986-45.321 20.233-45.779.354-.003.354-.003.708 0 18.138.343 33.005 21.75 24.46 39.474-5.341 11.078-18.919 16.685-30.921 14.453l-30.819 30.818c-2.382 2.183-2.577 2.209-5.657 2.344zM428.152 214.59c38.05.36 73.035 32.93 73.425 73.425.421 141.323.421 282.647 0 423.97-.28 29.048-19.147 56.988-45.972 67.957-41.918 17.141-97.247-11.874-101.577-62.261-39.584 7.719-83.528-11.212-105.095-46.21-12.254-19.887-17.163-43.951-13.908-67.188 0 0-8.403-6.307-14.357-11.963-33.877-32.184-47.832-83.551-34.39-128.684 8.088-27.154 25.57-51.307 48.73-67.726 0 0-.924-7.471-.997-13.312-.582-47.133 35.806-92.091 82.996-100.531 12.189-2.18 24.765-2.079 36.976.244 0 0 .619-5.884 1.684-10.496 7.309-31.64 37.261-56.472 70.581-57.213.635-.01 1.269-.014 1.904-.012zm-58.278 493.301l.007.058c.159 1.437-.182 6.693.358 10.938 3.37 26.486 27.314 48.9 54.083 50.429 30.92 1.766 60.736-24.575 61.252-57.058 1.363-141.374.425-282.762.003-424.142-.287-29.855-25.809-57.226-57.526-57.526h-.75c-30.3.287-57.759 26.697-57.514 58.677.42 3.263.676 6.829 1.504 10.018 2.7 10.396 9.584 19.38 18.104 26.083 0 0 6.12 8.862-.748 13.097-2.76 1.701-6.477 1.477-9.145-.522-.502-.396-.502-.395-1.001-.794-11.878-9.65-20.356-23.028-23.429-37.958-2.403-.631-5.026-1.379-7.573-1.761-34.411-5.155-71.05 13.226-87.498 43.933-8.767 16.365-11.816 35.632-8.841 53.939.929 5.713 3.826 12.497 7.311 18.871 7.551 13.812 20.138 25.305 36.418 28.228 0 0 2.477.606 3.951 1.939 5.154 4.659 1.265 15.381-8.133 13.555-23.099-4.658-41.398-22.879-50.847-45.627-18.14 14.278-31.864 34.188-38.372 56.356-12.429 42.339 3.022 91.027 38.325 119.052 9.228-22.117 26.914-40.971 51.663-45.596 0 0 .312-.289 2.454-.181 7.803.792 10.589 13.862-.613 16.122-21.113 4.414-36.317 24.677-41.954 45.105-.368 3.29-.987 6.875-1.195 10.216-2.559 41.279 28.623 82.04 70.701 89.021a85.676 85.676 0 0 0 23.125.657 84.577 84.577 0 0 0 10.494-1.807c2.46-16.203 11.375-31.102 24.522-41.531 1.65-1.309 3.577-2.123 5.732-2.094 6.92.417 10.245 9.722 3.394 15.288-10.503 8.672-17.492 21.041-18.262 35.015zm348.932 6.431c-8.129.154-14.471 10.689-9.34 18.088 5.613 8.093 23.123 4.14 20.845-8.602-.945-5.286-5.946-9.523-11.505-9.486zm-129.241-66.247v-27.721a8.517 8.517 0 0 1 2.343-5.657l33.609-33.61a8.424 8.424 0 0 1 6.355-2.312c3.71.433 4.226 1.468 5.279 2.651 2.722 3.059 2.904 7.558-.32 10.975l-31.266 31.267v24.575c14.334 5.081 24.118 22.914 16.814 38.064-7.451 15.456-30.939 20.262-43.811 7.988-13.486-12.861-8.113-40.082 10.997-46.22zm193.9-117.698c-4.042-1.05-7.839-3.033-10.996-6.043-15.144-14.438-6.511-46.983 18.642-47.462.354-.002.354-.002.707 0 18.158.346 33.005 21.751 24.461 39.474-3.269 6.78-9.624 11.511-16.814 13.649v87.713c-.141 3.228-.261 3.384-2.344 5.657l-60.392 60.393c-2.382 2.182-2.578 2.208-5.657 2.343h-70.658c-4.802-.21-5.928-2.268-6.928-4-2.772-4.801-.027-11.697 6.928-12h67.344l55.707-55.707v-84.017zM597.414 662.832c-9.847.189-16.387 17.063-4.331 22.167 8.266 3.5 19.709-6.211 14.759-15.875-1.946-3.798-6.038-6.319-10.428-6.292zm-212.71-99.028c1.24.126 1.441.222 1.98.407 2.899.989 4.834 3.733 5.423 6.885.067.347.067.347.137.693a47.43 47.43 0 0 0 10.651 21.424c9.018 10.356 21.63 17.1 34.868 20.644 0 0 5.713 2.339 6.17 7.024.512 5.253-5.018 9.86-10.578 8.359-25.964-7.01-50.269-25.542-56.491-52.876-1.266-5.564.723-12.108 6.625-12.559.783-.06.966-.013 1.215-.001zm275.523-56.969a25.014 25.014 0 0 1-1.508 3.941c-7.452 15.456-30.936 20.26-43.809 7.988-15.149-14.44-6.514-46.983 18.641-47.462.354-.002.353-.002.708 0 11.43.217 21.556 8.788 25.35 19.533H674.7l.523.017c2.876.283 3.561.854 5.134 2.326l25.871 25.872a8.653 8.653 0 0 1 2.343 5.657v73.406c-.163 4.672-1.496 5.071-3.074 6.304-4.693 3.666-12.682.677-12.926-6.304V528.02l-21.185-21.185h-11.159zM529.525 379.581a8.444 8.444 0 0 1 7.216 7.962v197.51c-.312 6.339-8.908 10.407-13.657 5.657-1.42-1.42-2.185-2.435-2.343-5.657v-197.51c.223-4.538 3.943-8.199 8.784-7.962zm261.789 113.29c-9.848.187-16.385 17.065-4.332 22.166 8.269 3.5 19.722-6.185 14.759-15.875-1.945-3.798-6.035-6.319-10.427-6.291zm-157.56-5.57c-9.876.188-16.276 17.111-4.332 22.166 8.416 3.562 19.98-6.557 14.563-16.242-2.039-3.646-5.79-5.952-10.231-5.924zm-263.032-3.465c10.238.067 20.522 3.301 28.046 10.396 4.76 4.489 2.129 14.286-5.289 14.15-4.274-.078-7.11-4.306-11.061-6.161-9.788-4.598-21.322-2.31-30.871 1.416 0 0-4.289 1.147-7.197-.699-4.951-3.143-4.504-11.937 1.747-14.349.286-.111.572-.219.86-.325 7.601-2.808 15.635-4.446 23.765-4.428zm374.182-181.989c2.999.395 3.11.618 4.959 2.313l41.944 41.944c2.183 2.382 2.209 2.577 2.343 5.656v74.423c-.141 3.228-.261 3.384-2.343 5.657l-51.872 51.871c-8.45 8.096-20.235-2.221-11.313-11.313l49.528-49.529v-67.795l-37.257-37.257h-12.647s-7.163-1.278-7.928-6.926c-.607-4.481 3.241-8.864 7.928-9.074h15.96l.698.03zm-167.31 66.931c-4.041-1.05-7.837-3.033-10.995-6.043-15.149-14.44-6.514-46.983 18.641-47.462.354-.003.354-.003.709 0 18.147.345 33.006 21.747 24.46 39.474-3.27 6.78-9.624 11.51-16.815 13.648v24.855l31.267 31.266s1.928 2.244 2.259 4.498c.94 6.423-7.559 12.49-13.573 6.816l-33.609-33.61a8.573 8.573 0 0 1-2.344-5.656v-27.786zm-193.058 3.531c1.915.153 3.771.831 5.637 1.42 19.796 6.252 38.227 18.556 47.83 37.443 2.937 5.776 5.458 12.032 5.944 18.391.438 5.723-6.826 10.947-12.377 7.291-3.344-2.203-3.597-6.92-4.837-10.996-4.854-15.95-19.298-27.965-34.328-34.279a79.084 79.084 0 0 0-9.86-3.418s-5.679-2.127-6.358-6.684c-.676-4.532 3.12-9.077 7.944-9.18l.405.012zm213.491-141.721l-63.717 61.793c-9.399 7.746-20.05-2.525-11.139-11.486l66.045-64.049c2.366-2.107 2.55-2.128 5.569-2.258h38.799l.68.029c2.931.376 3.043.598 4.862 2.201l50.355 48.361c1.47 1.53 2.333 2.646 2.459 5.77v35.037c14.327 5.081 24.117 22.915 16.814 38.064-7.452 15.456-30.937 20.259-43.81 7.989-13.474-12.844-8.112-40.084 10.996-46.222v-31.46l-45.575-43.769h-32.338zm-12.583 100.684c-9.876.188-16.277 17.11-4.332 22.166 8.415 3.562 19.979-6.557 14.562-16.242-2.039-3.646-5.804-5.953-10.23-5.924zm98.73-10.694c-.206.009-.412.01-.616.004-9.759.443-15.954 17.141-4.1 22.159 8.413 3.563 19.979-6.557 14.562-16.242-1.98-3.54-5.574-5.817-9.846-5.921z" fill="url(#a)"/><defs><linearGradient id="a" x2="1" gradientUnits="userSpaceOnUse" gradientTransform="matrix(637.544 0 0 570.823 181.215 500)"><stop offset="0" stop-color="#2945ae"/><stop offset="1" stop-color="#5ce0aa"/></linearGradient></defs></svg>