<svg xmlns="http://www.w3.org/2000/svg" xmlns:xlink="http://www.w3.org/1999/xlink" viewBox="0 0 64 64"><defs><linearGradient id="a" x1="7.511" x2="56.56" y1="71.553" y2=".516" gradientUnits="userSpaceOnUse"><stop offset="0" stop-color="#2945ae"/><stop offset="1" stop-color="#5ce0aa"/></linearGradient><linearGradient id="b" x1="5.357" x2="54.406" y1="70.066" y2="-.971" xlink:href="#a"/><linearGradient id="c" x1="-2.203" x2="46.846" y1="64.846" y2="-6.191" xlink:href="#a"/></defs><g data-name="Ai-robotics-brain-technology-artificial intelligence-cloud"><path fill="url(#a)" d="M56 41.59V37a8.649 8.649 0 0 0-.08-1.15A11.007 11.007 0 0 0 51 15c-.15 0-.3 0-.46.01a9.986 9.986 0 0 0-15.15-5.28 13 13 0 0 0-24.36 5.45A10.957 10.957 0 0 0 2 26a11.1 11.1 0 0 0 6.08 9.84A8.8 8.8 0 0 0 8 37v4.59l-3.71 3.7A1.033 1.033 0 0 0 4 46v3a1 1 0 0 0 1 1h3v8a1 1 0 0 0 1 1h3a.988.988 0 0 0 .53-.15l1.47-.92V61a1 1 0 0 0 1 1h3a.967.967 0 0 0 .55-.17l6-4A1 1 0 0 0 25 57l-.02-6H26a1.014 1.014 0 0 0 .8-.4l3-4a.984.984 0 0 0 .2-.6v-6h4v6a.984.984 0 0 0 .2.6l3 4a1.014 1.014 0 0 0 .8.4h1.02L39 57a1 1 0 0 0 .45.83l6 4A.967.967 0 0 0 46 62h3a1 1 0 0 0 1-1v-3.07l1.47.92A.988.988 0 0 0 52 59h3a1 1 0 0 0 1-1v-8h3a1 1 0 0 0 1-1v-3a1.033 1.033 0 0 0-.29-.71zM4 26a8.95 8.95 0 0 1 8.1-8.95A1.057 1.057 0 0 0 13 16a11 11 0 0 1 21.11-4.33 1 1 0 0 0 .7.58.965.965 0 0 0 .89-.23 7.984 7.984 0 0 1 13.11 4.27 1.007 1.007 0 0 0 1.1.78A8.862 8.862 0 0 1 51 17a9 9 0 0 1 4.42 16.84A9.012 9.012 0 0 0 47 28h-5v-2h3a1 1 0 0 0 .58-.19l2.33-1.67a3.375 3.375 0 1 0-.88-1.83L44.68 24H42v-3a1 1 0 0 0-1-1h-3v-4h-2v4h-3v-4h-2v4h-3v-4h-2v4h-3a1 1 0 0 0-1 1v3h-2.68l-2.35-1.69A2.962 2.962 0 0 0 17 22a3.021 3.021 0 1 0-.91 2.14l2.33 1.67A1 1 0 0 0 19 26h3v2h-5a9.012 9.012 0 0 0-8.42 5.84A9.07 9.07 0 0 1 4 26zm45-4a1 1 0 1 1 1 1 1 1 0 0 1-1-1zm-34 0a1 1 0 1 1-1-1 1 1 0 0 1 1 1zm2.7 38H16v-3.32l4.53-2.83A1.012 1.012 0 0 0 21 53v-2h1.98l.02 5.47zM28 45.67L25.5 49H20a1 1 0 0 0-1 1v2.45L11.71 57H10v-8a1 1 0 0 0-1-1H6v-1.59l3.71-3.7A1.033 1.033 0 0 0 10 42v-5a7.008 7.008 0 0 1 7-7h5v3h-2a.984.984 0 0 0-.6.2l-1.74 1.3A3.059 3.059 0 0 0 16 34a3 3 0 1 0 3 3 2.914 2.914 0 0 0-.15-.89L20.33 35H22v4a1 1 0 0 0 1 1h5zM17 37a1 1 0 1 1-1-1 1 1 0 0 1 1 1zm7 1V22h16v16zm24 22h-1.7L41 56.47l.02-5.47H43v2a1.012 1.012 0 0 0 .47.85L48 56.68zm10-12h-3a1 1 0 0 0-1 1v8h-1.71L45 52.45V50a1 1 0 0 0-1-1h-5.5L36 45.67V40h5a1 1 0 0 0 1-1v-4h1.67l1.48 1.11A2.914 2.914 0 0 0 45 37a3 3 0 1 0 3-3 3.059 3.059 0 0 0-1.66.5l-1.74-1.3a.984.984 0 0 0-.6-.2h-2v-3h5a7.008 7.008 0 0 1 7 7v5a1.033 1.033 0 0 0 .29.71l3.71 3.7zM47 37a1 1 0 1 1 1 1 1 1 0 0 1-1-1z"/><path fill="url(#b)" d="M26 27.959V35a1 1 0 0 0 1 1h10a1 1 0 0 0 1-1V25a1 1 0 0 0-1-1h-6.991a1 1 0 0 0-.7.287L26.3 27.246a1 1 0 0 0-.3.713zm2 .419L30.418 26H36v8h-8z"/><circle cx="26" cy="24" r="1" fill="url(#c)"/></g></svg>