<svg height="512" viewBox="0 0 512 512" width="512" xmlns="http://www.w3.org/2000/svg"><path d="M478.664 381.558c0 1.86-.992 3.565-2.594 4.485l-10.861 6.252L256 271.502 47.121 392.305l-10.84-6.262a5.135 5.135 0 0 1-2.583-4.464l-.362-251.134c0-1.86.992-3.565 2.594-4.485L253.603.692a5.163 5.163 0 0 1 5.157 0l7.74 4.475-.165 243.601 212.32 122.581z" fill="#6d81d5"/><path d="M477.972 384.162a5.189 5.189 0 0 1-1.901 1.881L258.397 511.31a5.182 5.182 0 0 1-5.167 0L36.281 386.043a5.08 5.08 0 0 1-1.891-1.881L256 256.001z" fill="#2944ae"/><path d="M477.972 384.162a5.189 5.189 0 0 1-1.901 1.881L258.397 511.31a5.182 5.182 0 0 1-5.167 0L36.281 386.043a5.08 5.08 0 0 1-1.891-1.881L256 256.001z" fill="#2944ae"/><path d="M377.95 326.406v.238l-114.181 66.142a15.5 15.5 0 0 1-15.539 0l-114.191-66.142v-.114L256 256.001z" fill="#213993"/><path d="M477.972 384.162a5.189 5.189 0 0 1-1.901 1.881L258.397 511.31a5.182 5.182 0 0 1-5.167 0l-22.766-13.145 189.658-109.136c3.451-1.984 3.451-6.965.01-8.959L230.641 270.675v-.01L256 256.001z" fill="#213993"/><path d="M478.664 381.558a5.21 5.21 0 0 1-.692 2.594L256 256.001 256.176 0c.889 0 1.788.227 2.583.692l216.96 125.267a5.147 5.147 0 0 1 2.583 4.464z" fill="#5169cd"/><path d="M478.664 381.558a5.21 5.21 0 0 1-.692 2.594l-31.115-17.96V146.08L256.155 35.631 256.186 0a5.09 5.09 0 0 1 2.573.692l216.96 125.267a5.147 5.147 0 0 1 2.583 4.464z" fill="#3351c5"/><path d="M261.167 253.635v116.763l-2.583 1.498a5.152 5.152 0 0 1-5.177 0l-96.115-55.679a5.147 5.147 0 0 1-2.583-4.464V197.966L256 256.632z" fill="#26d192"/><path d="M256 256.632v115.957a5.138 5.138 0 0 1-2.594-.692l-23.355-13.527V241.606z" fill="#1ec186"/><path d="M357.282 197.966v113.786a5.16 5.16 0 0 1-2.573 4.464l-96.126 55.679a5.155 5.155 0 0 1-2.583.692V256.632z" fill="#23f1a8"/><path d="M357.282 197.966v113.786a5.16 5.16 0 0 1-2.573 4.464l-19.335 11.202V210.656z" fill="#26d192"/><path d="M157.323 193.428l96.047-55.633a5.246 5.246 0 0 1 5.256 0l96.047 55.635c3.487 2.02 3.487 7.054 0 9.074l-96.047 55.633a5.246 5.246 0 0 1-5.256 0l-96.047-55.635c-3.486-2.02-3.486-7.054 0-9.074z" fill="#9ff7d3"/><path d="M354.668 202.503l-19.355 11.212-104.383-62.923 22.445-13a5.24 5.24 0 0 1 5.25 0l96.043 55.638c3.493 2.015 3.493 7.058 0 9.073z" fill="#23f1a8"/></svg>