<svg xmlns="http://www.w3.org/2000/svg" viewBox="0 0 24 24"><defs><linearGradient id="a" x1="12" x2="12" y1="21.47" y2="2.53" gradientUnits="userSpaceOnUse"><stop offset="0" stop-color="#5ce0aa"/><stop offset="1" stop-color="#6d82d5"/></linearGradient></defs><path fill="url(#a)" d="M5 12.5v8a1 1 0 0 1-2 0v-8a1 1 0 0 1 2 0zm3-3.24a1 1 0 0 0-1 1v10.21a1 1 0 0 0 2 0V10.26a1 1 0 0 0-1-1zM12 7a1 1 0 0 0-1 1v12.47a1 1 0 0 0 2 0V8a1 1 0 0 0-1-1zm4-2.25a1 1 0 0 0-1 1v14.7a1 1 0 0 0 2 0V5.77a1 1 0 0 0-1-1zm4-2.24a1 1 0 0 0-1 1v16.96a1 1 0 0 0 2 0V3.53a1 1 0 0 0-1-1z" data-name="signal"/></svg>