<svg xmlns="http://www.w3.org/2000/svg" viewBox="0 0 32 28"><defs><linearGradient id="b" x1="0%" y1="0%" y2="0%" gradientUnits="userSpaceOnUse"><stop offset="0" stop-color="#2945ae"/><stop offset="1" stop-color="#5ce0aa"/></linearGradient><linearGradient id="a" x1="0%" y1="0%" y2="100%" gradientUnits="userSpaceOnUse"><stop offset="0" stop-color="#2945ae"/><stop offset="1" stop-color="#5ce0aa"/></linearGradient></defs><path fill="url(#a)" d="M30 9v5.276a.3.3 0 0 1-.512.212l-1.604-1.604-4.551 4.551a.3.3 0 0 1-.379.037l-2.912-1.941-3.831 2.873a.3.3 0 0 1-.346.01L13 16.502l-4.891 3.26a.5.5 0 0 1-.693-.139l-.832-1.248a.5.5 0 0 1 .139-.693l6.111-4.074a.301.301 0 0 1 .333 0l2.791 1.861 3.831-2.873a.3.3 0 0 1 .346-.01l2.706 1.805 3.275-3.275-1.604-1.604A.3.3 0 0 1 24.724 9H30zm-2.5 15.5h-1a.5.5 0 0 1-.5-.5v-6.5a.5.5 0 0 1 .5-.5h1a.5.5 0 0 1 .5.5V24a.5.5 0 0 1-.5.5zm-8 0h-1a.5.5 0 0 1-.5-.5v-4.5a.5.5 0 0 1 .5-.5h1a.5.5 0 0 1 .5.5V24a.5.5 0 0 1-.5.5zm-4 0h-1a.5.5 0 0 1-.5-.5v-2.5a.5.5 0 0 1 .5-.5h1a.5.5 0 0 1 .5.5V24a.5.5 0 0 1-.5.5zm8 0h-1a.5.5 0 0 1-.5-.5v-3.5a.5.5 0 0 1 .5-.5h1a.5.5 0 0 1 .5.5V24a.5.5 0 0 1-.5.5z"/><path fill="url(#b)" d="M29.505 26c.276 0 .495.224.495.5v1a.5.5 0 0 1-.5.5H3a1 1 0 0 1-1-1V4.5a.5.5 0 0 1 .5-.5h1a.5.5 0 0 1 .5.5V26h25.505z"/><path fill="url(#b)" d="M7.5 24.5h-1A.5.5 0 0 1 6 24v-1.5a.5.5 0 0 1 .5-.5h1a.5.5 0 0 1 .5.5V24a.5.5 0 0 1-.5.5zm4 0h-1a.5.5 0 0 1-.5-.5v-2.5a.5.5 0 0 1 .5-.5h1a.5.5 0 0 1 .5.5V24a.5.5 0 0 1-.5.5z"/></svg>