<svg xmlns="http://www.w3.org/2000/svg" data-name="Layer 1" viewBox="0 0 64 64"><defs><linearGradient id="b" x1="0%" y1="0%" y2="0%" gradientUnits="userSpaceOnUse"><stop offset="0" stop-color="#2945ae"/><stop offset="1" stop-color="#5ce0aa"/></linearGradient><linearGradient id="a" x1="0%" y1="0%" y2="100%" gradientUnits="userSpaceOnUse"><stop offset="0" stop-color="#2945ae"/><stop offset="1" stop-color="#5ce0aa"/></linearGradient></defs><path fill="url(#a)" d="M59 2H5a3 3 0 0 0-3 3v41a3 3 0 0 0 3 3h23v5a1 1 0 0 1-1 1H13a3 3 0 0 0-3 3v1a3 3 0 0 0 3 3h38a3 3 0 0 0 3-3v-1a3 3 0 0 0-3-3H37a1 1 0 0 1-1-1v-5h23a3 3 0 0 0 3-3V5a3 3 0 0 0-3-3zm1 3v16H33V4h26a1 1 0 0 1 1 1zM31 41H4V23h27zm2-18h27v18H33zM5 4h26v17H4V5a1 1 0 0 1 1-1zm32 53h14a1 1 0 0 1 1 1v1a1 1 0 0 1-1 1H13a1 1 0 0 1-1-1v-1a1 1 0 0 1 1-1h14a3 3 0 0 0 3-3v-5h4v5a3 3 0 0 0 3 3zm22-10H5a1 1 0 0 1-1-1v-3h56v3a1 1 0 0 1-1 1z"/><path fill="url(#b)" d="M56 44h2v2h-2zm-4 0h2v2h-2zm-4 0h2v2h-2zM6 44h4v2H6z"/><path fill="url(#a)" d="M8 38.24l1.62-6.49 3.79 3a1 1 0 0 0 .89.18 1 1 0 0 0 .67-.61L17 28.85l2.06 5.5a1 1 0 0 0 .67.61 1 1 0 0 0 .89-.18l3.93-3.14 2.51 6.71 1.88-.7-3-8a1 1 0 0 0-.67-.61 1 1 0 0 0-.89.18l-3.93 3.14-2.51-6.71a1 1 0 0 0-1.88 0l-2.51 6.71-3.93-3.14a1 1 0 0 0-.94-.17 1 1 0 0 0-.65.71l-2 8zm33.12-19.76A1 1 0 0 0 42 19a1 1 0 0 0 .87-.59l4.09-9 4.09 9a1 1 0 0 0 1.82 0l5-11-1.82-.82-4.09 9-4.09-9a1 1 0 0 0-1.82 0l-4.17 9.17-5-9.24-1.76 1zM54 28.76a1 1 0 0 0-.75-.58 1 1 0 0 0-.91.32l-5.11 5.73-3.34-6.68a1 1 0 0 0-.73-.54 1 1 0 0 0-.87.28L38.54 31 37 24.76l-2 .48 2 8a1 1 0 0 0 .7.72 1 1 0 0 0 1-.25l4-4 3.38 6.76a1 1 0 0 0 .76.54 1 1 0 0 0 .88-.32L52.81 31l3.37 7.58 1.82-.82zM10.4 13.6l4 3.18a1 1 0 0 0 .81.2 1 1 0 0 0 .68-.48l3.45-6 6.1 4.35a1 1 0 0 0 .93.13 1 1 0 0 0 .62-.7l2-8L27 5.76l-1.64 6.57-5.78-4.14a1 1 0 0 0-.79-.19 1 1 0 0 0-.66.48l-3.42 6-4.09-3.27a1 1 0 0 0-.86-.21 1 1 0 0 0-.68.58l-3 7 1.84.78z"/></svg>