<svg xmlns="http://www.w3.org/2000/svg" data-name="Layer 1" viewBox="0 0 168 168"><defs><linearGradient id="b" x1="0%" y1="0%" y2="0%" gradientUnits="userSpaceOnUse"><stop offset="0" stop-color="#2945ae"/><stop offset="1" stop-color="#5ce0aa"/></linearGradient><linearGradient id="a" x1="0%" y1="0%" y2="100%" gradientUnits="userSpaceOnUse"><stop offset="0" stop-color="#2945ae"/><stop offset="1" stop-color="#5ce0aa"/></linearGradient></defs><path fill="none" d="M0 0h1200v1200H0z"/><path fill="#191b20" d="M0 0h1200v1200H0z"/><path fill="url(#a)" d="M116.14 49.2l13.46 7.1a4.312 4.312 0 0 0 3.54 0l13.46-7.1a1.882 1.882 0 0 0 .76-2.65l-14.97-25.33a1.225 1.225 0 0 0-1.02-.71 1.212 1.212 0 0 0-1.01.71l-14.97 25.33a1.887 1.887 0 0 0 .75 2.65zm17.23-18.45l8.05 13.62-8.05-3.15zm0 14.77l6.69 2.61-6.69 3.52zm-4 6.14l-6.8-3.59 6.8-2.62zm0-20.92v10.43l-7.96 3.06z"/><path fill="url(#a)" d="M130.75 77.21a.622.622 0 0 0 .5.28.64.64 0 0 0 .51-.28l15.48-25.53c.35-.48.4-.73.19-.73a1.45 1.45 0 0 0-.64.27l-14.67 8.19a1.371 1.371 0 0 1-.73.19 1.437 1.437 0 0 1-.73-.18l-14.94-8.21a1.536 1.536 0 0 0-.64-.27c-.22 0-.17.26.18.74zm2.62-13.98a5.23 5.23 0 0 0 .76-.35l2.49-1.4-3.25 5.35zm-4.69-.33a6.142 6.142 0 0 0 .69.32v4.01l-3.59-5.93zM36.71 74.94a5.468 5.468 0 0 0 4.06 5.27 5.751 5.751 0 0 0 5.42 3.78 5.645 5.645 0 0 0 4.47-2.14 5.645 5.645 0 0 0 4.47 2.14 5.748 5.748 0 0 0 5.69-4.73 12.158 12.158 0 0 0 4.55-17.55 12.269 12.269 0 0 0-4.55-17.65 5.758 5.758 0 0 0-5.69-4.73 5.624 5.624 0 0 0-4.47 2.15 5.624 5.624 0 0 0-4.47-2.15 5.763 5.763 0 0 0-5.44 3.79 5.461 5.461 0 0 0-4.04 5.27 5.344 5.344 0 0 0 4 5.2v16.14a5.347 5.347 0 0 0-4 5.21zm5.77-25.11c-.98 0-1.77-.52-1.77-1.44a1.593 1.593 0 0 1 1.77-1.51h1.94v-1.87a1.737 1.737 0 0 1 1.77-1.68 1.65 1.65 0 0 1 1.67 1.68v1.87h5.6v-1.87a1.65 1.65 0 0 1 1.67-1.68 1.73 1.73 0 0 1 1.77 1.68v1.86a8.133 8.133 0 0 1 6.51 8.09 8.43 8.43 0 0 1-3.46 6.74 8.416 8.416 0 0 1 3.46 6.66 8.133 8.133 0 0 1-6.51 8.09v1.86a1.73 1.73 0 0 1-1.77 1.68 1.65 1.65 0 0 1-1.67-1.68v-1.86h-5.6v1.86a1.65 1.65 0 0 1-1.67 1.68 1.719 1.719 0 0 1-1.75-1.68v-1.86h-1.96a1.599 1.599 0 0 1-1.77-1.51c0-.93.79-1.45 1.77-1.45h2.23V49.83z"/><path fill="url(#b)" d="M59.67 54.9a5.07 5.07 0 0 0-5.04-5.07h-6.77v10.35h6.77a5.189 5.189 0 0 0 5.04-5.28zm-7.81-1.07h2.77a1.071 1.071 0 0 1 1.04 1.07 1.23 1.23 0 0 1-1.04 1.28h-2.77zm7.81 14.68a5.332 5.332 0 0 0-5.04-5.37h-6.77v10.35h6.77a4.938 4.938 0 0 0 5.04-4.98zm-7.81-1.37h2.77a1.398 1.398 0 0 1 1.04 1.37.955.955 0 0 1-1.04.98h-2.77zm-2.166 20.145L21.067 111.98a2 2 0 0 0 2.613 3.028l27.468-23.695 23.302 15.756a2 2 0 0 0 2.604-.316L111.348 68.8l-.68 4.939a2 2 0 0 0 3.964.546l1.723-12.517a2 2 0 0 0-2.736-2.125l-11.687 4.763a2 2 0 1 0 1.51 3.704l4.969-2.025-33.16 36.699-23.13-15.641a2 2 0 0 0-2.427.143zM160 15a3 3 0 1 0-3 3 3.003 3.003 0 0 0 3-3zm-4.5 0a1.5 1.5 0 1 1 1.5 1.5 1.501 1.501 0 0 1-1.5-1.5zM70 9a3 3 0 1 0-3-3 3.003 3.003 0 0 0 3 3zm0-4.5A1.5 1.5 0 1 1 68.5 6 1.501 1.501 0 0 1 70 4.5zM21 40a2 2 0 1 0-2-2 2.002 2.002 0 0 0 2 2zm0-3a1 1 0 1 1-1 1 1.001 1.001 0 0 1 1-1zm72-8a2 2 0 1 0-2-2 2.002 2.002 0 0 0 2 2zm0-3a1 1 0 1 1-1 1 1.001 1.001 0 0 1 1-1zM11 9a2 2 0 1 0 2 2 2.002 2.002 0 0 0-2-2zm0 3a1 1 0 1 1 1-1 1.001 1.001 0 0 1-1 1z"/><circle cx="2" cy="146" r="2" fill="url(#a)"/><path fill="url(#a)" d="M11 144H8a2 2 0 0 0 0 4h3a2 2 0 0 0 0-4zm149 0h-3a2 2 0 0 0 0 4h3a2 2 0 0 0 0-4z"/><circle cx="166" cy="146" r="2" fill="url(#a)"/><path fill="url(#a)" d="M150.72 144H92.897a10.456 10.456 0 0 0 .783-1 9.893 9.893 0 0 0-3.42-14.19 11.063 11.063 0 0 0-5.43-1.28.774.774 0 0 1-.31-.08.71.71 0 0 1-.02-.2c0-.12 0-.28.33-.28a11.668 11.668 0 0 0 5.48-1.3 9.91 9.91 0 0 0 .06-17.25 10.509 10.509 0 0 0-10.18-.05 10.042 10.042 0 0 0-5.06 8.65 10.39 10.39 0 0 0 1.53 5.13 1.192 1.192 0 0 1 .13.42c-.03.02-.07.04-.12.07l-.21.08a.601.601 0 0 1-.47-.28l-.1-.16a15.336 15.336 0 0 0-3.75-3.62l-.09-.06a10.358 10.358 0 0 0-10.12 0 9.924 9.924 0 0 0 0 17.3 10.418 10.418 0 0 0 10.07.03 10.181 10.181 0 0 0 3.92-3.97.682.682 0 0 1 .28-.24.69.69 0 0 1 .2.07.497.497 0 0 1 .18.47 10.656 10.656 0 0 0-1.46 5.22 9.856 9.856 0 0 0 1.7 5.52 10.333 10.333 0 0 0 .778 1H17.28a2.017 2.017 0 1 0 0 4h133.44a2.017 2.017 0 1 0 0-4zM76.2 127.72a4.473 4.473 0 0 0-3.75 2.25 6.234 6.234 0 0 1-2.41 2.47 6.32 6.32 0 0 1-6.11 0 5.923 5.923 0 0 1 0-10.37 6.262 6.262 0 0 1 6.08-.03 11.222 11.222 0 0 1 2.64 2.59 4.59 4.59 0 0 0 3.81 2.09 4.138 4.138 0 0 0 2.04-.53 3.88 3.88 0 0 0 2.25-2.98 5.015 5.015 0 0 0-.57-2.97 6.661 6.661 0 0 1-1.05-3.22 6.052 6.052 0 0 1 3.1-5.21 6.135 6.135 0 0 1 9.14 5.21 6.025 6.025 0 0 1-3.01 5.16 7.54 7.54 0 0 1-3.53.79 4.28 4.28 0 1 0 0 8.56 7.193 7.193 0 0 1 3.48.77 5.92 5.92 0 0 1 .01 10.36 6.45 6.45 0 0 1-.7.34 6.116 6.116 0 0 1-4.75 0 5.53 5.53 0 0 1-.69-.34 6 6 0 0 1-3.06-5.18 6.835 6.835 0 0 1 .98-3.33 4.484 4.484 0 0 0-1.71-5.83 4.574 4.574 0 0 0-2.19-.6z"/><path fill="url(#b)" d="M122.945 8.794V7.73l-2.362.312v-.031l1.487-1.955-.939-.532-.954 2.19h-.032l-.97-2.175-.955.548 1.471 1.909v.031l-2.3-.297v1.064l2.316-.297v.031l-1.487 1.908.892.564 1.018-2.206h.03l.939 2.19.986-.563-1.502-1.878v-.031l2.362.282z"/><path fill="url(#a)" d="M110.777 37.067l-.857 1.099.514.324.586-1.27h.018l.54 1.261.568-.324-.865-1.082v-.018l1.36.163v-.613l-1.36.18v-.018l.856-1.126-.54-.306-.55 1.261h-.018l-.558-1.253-.551.316.848 1.099v.018l-1.325-.171v.613l1.334-.171v.018z"/><path fill="url(#b)" d="M78.823 55.453l-1.458 1.872.875.553.998-2.165h.03l.921 2.149.967-.552-1.473-1.842v-.031l2.317.276V54.67l-2.317.307v-.031l1.459-1.918-.921-.522-.936 2.148h-.032l-.951-2.133-.937.538 1.443 1.872v.031l-2.256-.292v1.043l2.271-.291v.031z"/><path fill="url(#a)" d="M51.702 31.023l-1.258 1.615.754.477.862-1.867h.025l.795 1.853.834-.476-1.271-1.589v-.027l1.999.239v-.9l-1.999.264v-.026l1.258-1.655-.794-.45-.808 1.853h-.026l-.821-1.84-.808.464 1.245 1.615v.026l-1.947-.251v.9l1.96-.252v.027z"/><path fill="url(#b)" d="M118.154 153h-8.308a2.006 2.006 0 0 0 0 4h8.308a2.006 2.006 0 0 0 0-4zm-60 0h-8.308a2.006 2.006 0 0 0 0 4h8.308a2.006 2.006 0 0 0 0-4zM104 153H64a2 2 0 0 0 0 4h15.94v2H72a2 2 0 0 0 0 4h25a2 2 0 0 0 0-4h-8.94v-2H104a2 2 0 0 0 0-4z"/></svg>